<svg xmlns="http://www.w3.org/2000/svg" viewBox="0 0 512 512" role="img" aria-label="Kiangna Fishing Lake fish logo">
  <defs>
    <linearGradient id="bg" x1="80" y1="40" x2="440" y2="470" gradientUnits="userSpaceOnUse">
      <stop offset="0" stop-color="#0f6f7a"/>
      <stop offset="1" stop-color="#062f39"/>
    </linearGradient>
    <linearGradient id="fish" x1="124" y1="202" x2="390" y2="326" gradientUnits="userSpaceOnUse">
      <stop offset="0" stop-color="#ffffff"/>
      <stop offset=".55" stop-color="#e7f2ef"/>
      <stop offset="1" stop-color="#c7ddd8"/>
    </linearGradient>
    <linearGradient id="gold" x1="128" y1="178" x2="404" y2="338" gradientUnits="userSpaceOnUse">
      <stop offset="0" stop-color="#f8d34f"/>
      <stop offset="1" stop-color="#d69c13"/>
    </linearGradient>
  </defs>
  <rect width="512" height="512" rx="112" fill="url(#bg)"/>
  <path d="M88 322c72 46 231 55 336-10" fill="none" stroke="#68b7b4" stroke-width="20" stroke-linecap="round" opacity=".52"/>
  <path d="M111 281c24-46 70-78 130-80 49-2 93 15 129 45l57-52c9-8 23-1 22 11l-8 62 8 62c1 12-13 19-22 11l-57-52c-36 30-80 47-129 45-60-2-106-35-130-80 0 0-11-20 0-40Z" fill="url(#fish)"/>
  <path d="M166 208c32-31 80-49 128-43 42 5 78 25 102 55-40-18-83-21-130-11-38 8-68 10-100-1Z" fill="url(#gold)"/>
  <path d="M132 256c21-28 54-44 93-44 41 0 74 16 99 44-25 28-58 44-99 44-39 0-72-16-93-44Z" fill="#0b4550" opacity=".12"/>
  <circle cx="178" cy="244" r="14" fill="#06323b"/>
  <circle cx="183" cy="239" r="4" fill="#ffffff"/>
  <path d="M248 292c33 18 70 16 101-4" fill="none" stroke="#0a3540" stroke-width="13" stroke-linecap="round" opacity=".7"/>
  <path d="M116 358h280" fill="none" stroke="#f2c744" stroke-width="18" stroke-linecap="round"/>
</svg>
